P3
# CREATOR: GIMP PNM Filter Version 1.1
20 13
255
255
200
80
255
200
80
255
200
80
255
200
80
255
200
80
255
200
80
255
200
80
255
200
80
255
200
80
255
200
80
255
200
80
255
200
80
0
200
0
255
200
80
255
200
80
255
200
80
255
200
80
255
200
80
255
200
80
255
200
80
255
200
80
255
200
80
255
200
80
255
200
80
255
200
80
255
200
80
255
200
80
255
200
80
255
200
80
255
200
80
255
200
80
255
200
80
255
255
255
255
200
80
255
200
80
255
200
80
255
200
80
255
200
80
255
200
80
255
200
80
255
200
80
255
200
80
255
200
80
255
200
80
255
200
80
255
200
80
255
200
80
255
200
80
255
200
80
255
200
80
255
200
80
255
200
80
255
255
255
255
200
80
255
200
80
255
200
80
255
200
80
255
200
80
255
200
80
255
200
80
0
200
0
255
255
255
255
255
255
0
0
0
255
255
255
255
255
255
255
255
255
255
255
255
0
0
0
255
255
255
255
255
255
255
255
255
0
0
0
255
255
255
255
255
255
0
0
0
255
200
80
255
200
80
255
200
80
255
200
80
255
200
80
255
200
80
255
200
80
255
255
255
255
200
80
255
200
80
255
200
80
255
200
80
255
255
255
255
200
80
255
200
80
255
200
80
255
200
80
255
200
80
255
200
80
255
255
255
255
200
80
255
200
80
255
200
80
255
200
80
255
200
80
255
200
80
255
200
80
255
255
255
255
200
80
255
200
80
255
200
80
255
200
80
255
255
255
255
200
80
255
200
80
255
200
80
255
200
80
255
200
80
255
200
80
255
255
255
255
200
80
255
200
80
255
200
80
255
200
80
255
200
80
255
200
80
255
200
80
255
255
255
255
200
80
255
200
80
255
200
80
255
200
80
255
255
255
255
200
80
255
200
80
255
200
80
255
200
80
255
200
80
255
200
80
255
255
255
255
200
80
255
200
80
255
200
80
255
200
80
255
200
80
255
200
80
255
200
80
255
255
255
255
200
80
255
200
80
255
200
80
255
200
80
255
255
255
255
200
80
255
200
80
255
200
80
255
200
80
255
200
80
255
200
80
255
255
255
255
200
80
255
200
80
255
200
80
255
200
80
255
200
80
255
200
80
255
200
80
255
255
255
255
200
80
255
200
80
255
200
80
255
200
80
0
0
0
255
255
255
255
255
255
0
0
0
255
255
255
255
255
255
255
255
255
0
0
0
255
200
80
255
200
80
255
200
80
255
200
80
255
200
80
255
200
80
255
200
80
255
255
255
255
200
80
255
200
80
255
200
80
255
200
80
255
200
80
255
200
80
255
200
80
255
255
255
255
200
80
255
200
80
255
200
80
255
255
255
255
200
80
255
200
80
255
200
80
255
200
80
255
200
80
255
200
80
255
200
80
255
255
255
255
200
80
255
200
80
255
200
80
255
200
80
255
200
80
255
200
80
255
200
80
255
255
255
255
200
80
255
200
80
255
200
80
255
255
255
255
200
80
255
200
80
255
200
80
255
200
80
255
200
80
255
200
80
255
200
80
0
0
0
255
255
255
255
255
255
255
255
255
255
255
255
255
255
255
255
255
255
255
255
255
0
0
0
255
255
255
255
255
255
255
255
255
0
0
0
255
255
255
255
255
255
255
255
255
200
0
0
255
200
80
255
200
80
255
200
80
255
200
80
255
200
80
255
200
80
255
200
80
255
200
80
255
200
80
255
200
80
255
200
80
255
200
80
255
200
80
255
200
80
255
200
80
255
200
80
255
200
80
255
200
80
255
200
80
255
200
80
